/* XPM */
static char * button_xpm[] = {
"17 17 3 1",
" 	c None",
".	c #D9D9D9",
"+	c #22AA99",
".................",
".+++++++++++++++.",
".+++++++++++++++.",
".+++++.....+++++.",
".++++.......++++.",
".+++.........+++.",
".++...........++.",
".++...........++.",
".++...........++.",
".++...........++.",
".++...........++.",
".+++.........+++.",
".++++.......++++.",
".+++++.....+++++.",
".+++++++++++++++.",
".+++++++++++++++.",
"................."};

