/* XPM */
static char * pattern_xpm[] = {
"2 21 3 1",
" 	c None",
".	c #22AA99",
"+	c #D9D9D9",
".+",
"+.",
".+",
"+.",
".+",
"+.",
".+",
"+.",
".+",
"+.",
".+",
"+.",
".+",
"+.",
".+",
"+.",
".+",
"..",
"..",
"..",
".."};

