/* XPM */
static char *x[] = {
/* width height num_colors chars_per_pixel */
"    56    46      249            2",
/* colors */
".. c #02020b",
".# c #9d8554",
".a c #824317",
".b c #cdc2a4",
".c c #d08424",
".d c #c65d0c",
".e c #aaa27c",
".f c #7f634a",
".g c #3e3e3c",
".h c #a6824c",
".i c #dda34c",
".j c #3f1f0d",
".k c #bab29b",
".l c #a46224",
".m c #9e460c",
".n c #625e64",
".o c #603013",
".p c #a9a286",
".q c #aa936c",
".r c #603f1f",
".s c #f1e492",
".t c #f2a43c",
".u c #7e5224",
".v c #9a9498",
".w c #43321c",
".x c #fa8204",
".y c #80787a",
".z c #b8a488",
".A c #c07028",
".B c #765030",
".C c #f1d680",
".D c #c8b591",
".E c #ce923c",
".F c #868684",
".G c #9e7440",
".H c #6f411f",
".I c #aa9488",
".J c #835e61",
".K c #905421",
".L c #54311c",
".M c #db650f",
".N c #e7c578",
".O c #bc8a54",
".P c #8f7868",
".Q c #bfbabb",
".R c #282828",
".S c #b7ad90",
".T c #d6b284",
".U c #834b1b",
".V c #a05821",
".W c #aeaa8a",
".X c #c29647",
".Y c #99847c",
".Z c #a5778c",
".0 c #c66a0c",
".1 c #90643c",
".2 c #50280e",
".3 c #61472c",
".4 c #cb9567",
".5 c #b55609",
".6 c #a88c5c",
".7 c #c0b296",
".8 c #56391e",
".9 c #ce824c",
"#. c #524e4c",
"## c #de7e14",
"#a c #c7bba2",
"#b c #2d1408",
"#c c #fef395",
"#d c #e6b468",
"#e c #7e7e7c",
"#f c #b37331",
"#g c #fbc354",
"#h c #c0ac8a",
"#i c #bda65e",
"#j c #503f2d",
"#k c #c6a37a",
"#l c #a9a5a6",
"#m c #815a3f",
"#n c #9c8d5e",
"#o c #704726",
"#p c #915b2e",
"#q c #8c4c1e",
"#r c #5a462c",
"#s c #c88c3a",
"#t c #b76424",
"#u c #703408",
"#v c #9e9a9c",
"#w c #c27a44",
"#x c #f3db82",
"#y c #ca9a5c",
"#z c #361a09",
"#A c #5a4022",
"#B c #40281c",
"#C c #877a79",
"#D c #a15e2b",
"#E c #978c8d",
"#F c #ab8b71",
"#G c #523a2e",
"#H c #885324",
"#I c #4c3620",
"#J c #ab9b89",
"#K c #c09c58",
"#L c #cc691b",
"#M c #bfb6b4",
"#N c #c6ac7c",
"#O c #e2c27c",
"#P c #ad9d72",
"#Q c #feed8b",
"#R c #e99931",
"#S c #967e58",
"#T c #8e6674",
"#U c #684729",
"#V c #bfaea0",
"#W c #bbac6c",
"#X c #d78d34",
"#Y c #856d58",
"#Z c #6a4020",
"#0 c #cfb58c",
"#1 c #918a8c",
"#2 c #a57d46",
"#3 c #edca79",
"#4 c #804c28",
"#5 c #956a4f",
"#6 c #c0b69d",
"#7 c #77471e",
"#8 c #573f33",
"#9 c #a2844e",
"a. c #767275",
"a# c #363234",
"aa c #fefefc",
"ab c #fab23c",
"ac c #7a5e44",
"ad c #121214",
"ae c #fc941c",
"af c #f27204",
"ag c #d35c06",
"ah c #d27014",
"ai c #d39d47",
"aj c #d6ceac",
"ak c #653719",
"al c #fcad36",
"am c #765830",
"an c #ce8a4c",
"ao c #38241a",
"ap c #766a64",
"aq c #b6ae7c",
"ar c #b17c3f",
"as c #b46b28",
"at c #e66404",
"au c #d37c22",
"av c #febd4c",
"aw c #f27c0c",
"ax c #fe8e14",
"ay c #fccc5f",
"az c #d89e64",
"aA c #e6be6c",
"aB c #8e4408",
"aC c #feda6c",
"aD c #d4ac7c",
"aE c #ba5e1c",
"aF c #dacaa4",
"aG c #a47e68",
"aH c #d8a678",
"aI c #aa6a30",
"aJ c #fdd469",
"aK c #be6224",
"aL c #be966a",
"aM c #c2761c",
"aN c #ee9e37",
"aO c #8a626c",
"aP c #a68660",
"aQ c #b98d61",
"aR c #a69ea0",
"aS c #deaa64",
"aT c #fee582",
"aU c #713a14",
"aV c #907e77",
"aW c #da6a14",
"aX c #d3c399",
"aY c #9f9699",
"aZ c #e1b569",
"a0 c #d6bd94",
"a1 c #dc9638",
"a2 c #6a666c",
"a3 c #d2761c",
"a4 c #a64e0c",
"a5 c #ee6a04",
"a6 c #aeaaac",
"a7 c #c8ae94",
"a8 c #eaae64",
"a9 c #fea62c",
"b. c #c0a68a",
"b# c #985624",
"ba c #a75717",
"bb c #98653d",
"bc c #af8b4f",
"bd c #d0bd99",
"be c #fefa9f",
"bf c #3a3a3c",
"bg c #c79579",
"bh c #c89c76",
"bi c #c88e6c",
"bj c #ce7a3c",
"bk c #fe9a1c",
"bl c #8a6654",
"bm c #b0a489",
"bn c #b4946c",
"bo c #4d3020",
"bp c #ca721c",
"bq c #8f8585",
"br c #afa6a4",
"bs c #985b2e",
"bt c #492813",
"bu c #a08e86",
"bv c #b9b3b4",
"bw c #865438",
"bx c #7a5a4c",
"by c #b3a47a",
"bz c #b28644",
"bA c #47220c",
"bB c #78421c",
"bC c #572a0f",
"bD c #321605",
"bE c #b69e71",
"bF c #aa663c",
"bG c #765240",
"bH c #c16723",
"bI c #b0581c",
"bJ c #f0dc90",
"bK c #a67c5c",
"bL c #f6ae4c",
"bM c #b26e3c",
"bN c #897e7c",
"bO c #885a3c",
"bP c #b08668",
"bQ c #b29e94",
"bR c #9a7e70",
"bS c #5a2f17",
"bT c #e26604",
"bU c #c28e44",
"bV c #c2a254",
"bW c #ce8a30",
"bX c #b29e84",
"bY c #6a3a1c",
"bZ c #5f4233",
"b0 c #80563a",
"b1 c #9696ac",
"b2 c #b7a59a",
/* pixels */
"aaaaaaaaaaaaaaaaaaaaaaaaaaaaaaaaaaaaaaaaaaaaaaaaaaaaaaaaaaaaaaaaaaaaaaaaaaaaaaaaaaaaaaaaaaaaaaaaaaaaaaaaaaaaaa.Q",
"aa.Q.Q.Q.Q.Q.Q.Q.Q.Q.Q.Q.Q.Q.Q.Q.Q.Q#a.Q.Q.Q#a.Q.Q.Q#M#a.Q#M#M#M#M#M#Mbvbvbvbvbvbvbv#Mbv#M#M#M#M#M#M#M#M.Q.Q.Q..",
"aa.Q.Q.Q#a#a#6#6#6#6#6#6#6.D.D.D#6#6.7.7.k.k.k.7.S.7.S#V.7#V#h#h#hb.#kbhbgbgbibi.4bgbh#kb.b.#hb.#h#haDbha7.Q.Q..",
"aa.Q.Q#abM.0#9#n#n#n#n.6bcbcbzbc.6.6#n#n#n#n.##n#n.#.#.#.#.##9#2#2ar#fbHbHaKaK#LbHbp#f#farar#2#2#2.hbHbb#k#V#M..",
"aaa6.Q.b#LbL#cbebebebe#caTaCayayaJ#Q#c#cbebe#c#Q#c#c#Q#QaTaJaJayavalae.xa5ag.dagatafaxa9alavav#gbWar#s.j.q.z#M..",
"aa.Q.Qbd#L.tam#p#I#I#I#A#U#4#p#p#H#o#r#j#I.w#I#I#I#I.8ak.r#Z#obB.U#q.V.dagatbT.Mag.dba#q#H.U.UaM.V.iai.j#F#V.Q..",
"aaa6.Q#6bH#RaI#p#x#x#xbJ.s#x#x.C#x#x.s.s.s#x.C#3#3.N#OaZaZ.i.iai#XauahaE#Db##q.KbsaEaha3#X#Xa1#f#Z.2bY#zaPbQ#M..",
"aa.Q#Mbdbs#X.Vb0.N#yaH.Ta0aF.bajajajaXa0.TaD.4bhbgbn#Fbu#n.Y.P.Y.YaV.y#C#C.yap#C#C#C.PaVbRbq.PaL.B#b.o#b#9b2a6..",
"aaa6#M.S#7au#q.ubdbr#Ma6.Qa6.Qa6.Qa6.Qbr#Mbrbvbrbv#lbv#l#M#lbv#l#M#lbv#lbv#lbv#lbv#l#M#lbv#lbv#JacbDbS#b#2aY#M..",
"aa.Q#M#h.8.5#u#Ua7bv.Q.Qa6.Q.Q.Qa6.Q.Q.Qa6.Q.Q.Qa6.Q.Q#Ma6.Q.Q.Qa6.Q.Q.Qa6.Q.Q.Qa6.Q.Q.Qa6#M#M#V.f#b.o#b.Gb2.Q..",
"aaa6#Mbn#B.HbA.8#0#l.Qa6.Qa6.Qa6.Qa6.Qa6.Qa6.Qa6#la.#la6.Qa6.Qa6.Qa6.Qa6.Qa6.Qa6.Qa6.Qa6.Qa6.QbQ#Y#bbS#bbK.I#M..",
"aa#M#laQaobA#zboaLbva6.Q.Q.Qa6.Qa6.Qbf.g.g.gbf.Qa...a..Q.Q.Qa6.Qa6.Qa6.Q.Q.Qa6.Qa6.Qa6.Q.Q.Qa6.k.f#bakbD.Gbra6..",
"aaa6a6bK#B#z#b.LaL#l.Qa6.Qa6.Qa6.Qa6#e#...#..ya6.y...ya6.Qa6.Qa6.Qa6.Qa6.Qa6.Qa6.Qa6.Qa6.Qa6.Qbr#Y.jbB#z#2.I#M..",
"aa.Q#lbP#BbDbD.8aGbva6.Qa6.Qa6.Qa6.Qbr.y...ya6.Qa..........ga6.Q........a..Qa6.Qa6.Qa6.Qa6.Qbr#a.PbS.5bt#n#Va6..",
"aaa6bvbPbt#bbD.LbR#l.Qa6.Qa6.Qa6.Qa6.Qa...a..Qa6.y...ya6.y...ybf..a6.Qa#..a6.Qa6.Qa6.Qa6.Qa6#Mbv.6.U##bYbEb.#M..",
"aaa6#laLaobD#z.8.PaRa6.Qa6a6a6.Qa6a6a6.y..a.a6.Qa...a..Qa...a..g..a.a..R..a6a6.Qa6a6a6.Qa6a6a6#a.4.M.tbI#h#Va6..",
"aaa6bvbXaobDbD.L.Y#l.Qa6.Qa6.Qa6.Qa6.Qa...a..Qa6.y...ya6.y...ya#..a.#ea.#ea6.Qa6.Qa6.Qa6.Qa6.Q#Ma8bkayaw#d#6.Q..",
"aaa6b2.z#BbAbD.LaV#la6a6a6a6a6a6a6a6a6ap..a.a6a6a...a.a6a...a.bf..a6a6a6a6a6a6a6a6a6a6a6a6a6a6#6aZ#gaTabaA.Qa6..",
"aaa6#M.SbtbCbDbtbPaR.Qa6.Qa6.Qa6.Qa6.Qa...a..Qa6.y..#ea6.y..#ea6.........ya6.Qa6.Qa6.Qa6.Qa6.Qbv#OaJ#Qay.N#6.Q..",
"aaa6a6.S.LaU.jbtaQ#la6a6a6a6a6a6a6a6a6a6a6a6a6a6a6a6a6a6a6a6a6a6a6a6a6a6a6a6a6a6a6a6a6a6a6a6a6bv#OaJ#QaJ.N.Qa6..",
"aaa6a6.7ak.abA#I#k#la6a6.Qa6a6a6.Qa6a6a6.Qa6a6a6.Qa6a6a6.Qa6a6a6.Qa6a6a6.Qa6a6a6.Qa6a6a6.Qa6a6.k#Oay#QaJ#3#a#l..",
"aaa6a6.k.Ha4.o.8#h#la6a6a6a6a6a6a6a6a6a6a6a6a6a6a6a6a6a6a6a6a6a6a6a6a6a6a6a6a6a6a6a6a6a6a6a6a6#M#d#g#QaJ.N#Ma6..",
"aaa6a6#6#4.dbBbZ#0#la6a6a6a6a6a6a6a6a6a6a6a6a6a6a6a6a6a6a6a6a6a6a6a6a6a6a6a6a6a6a6a6a6a6a6a6a6bvaSabaT#g#O.Qa6..",
"aaa6a6#6#pa3aB.B#0bra6a6a6a6a6a6a6a6a6a6a6a6a6a6a6a6a6a6a6a6a6a6a6a6a6a6a6a6a6a6a6a6a6a6a6a6a6.kazaeaCalaA#aa6..",
"aaaRa6.D#D#X.K#mbd#va6a6a6#va6a6a6b1a6a6a6#va6a6a6#va6a6a6#va6a6a6#va6a6a6b1a6a6a6#va6a6a6#v#l#VaQbHavaw#d.Wa6..",
"aa#lbv#0aK#R#D.1bda6a6a6a6a6a.a.a.a.a6a6.Fa.a.a.a.a.b1a6b1a..Fa6a6b1a.a.a6a.a.a.a.a.a.a6a6a6a6.S#S.a.taEaD#Ma6..",
"aaa6a6#h.MaN#tbbbdbra6#va6a2..a#bf..a..F.na#ad...Rbf.FaYa...bfb1a6a.....a6....a#bfbf..a2b1#v#laY#Y.2#LaUbEbma6..",
"aaa6a6#0aWaN.AbbaXa6a6a6a6....a6a6....a.a6a6bf..a.a6a6a6a...bfa6a6a.....a6....a6a6a6....a.a6br.Iac#z.abt.qb.br..",
"aaaRa6#N.MaNbpbbbd#va6#v....a6#va6#va6#va6#va#..a.b1a6#va.....a#a.......a6....#va6#v....a.#v#lbqbGbD.2bD.#.I#l..",
"aaa6#V.DbTaNbp#5aXbra6a6....a6a6a6a6a6a6a6a6bf..a.a6a6a6ap.....gap......a6....a6a6a6....a.a6#l#EbxbtbDbD#5.Ia6..",
"aa#va6.SaK#RasbbaXaRa6#v....a6#va6#va6#va6#vbf..a.#va6#va...a#a2bfa2....a6............#va6#va6.Fblak#bbAbb.Y#l..",
"aaa6aR.D#taNasaIaXbr#va6....#va6......a.a6a6a#..a.a6#va6ap..a#a.bfap....a6....a6a6a6#va6a6a6aY.vblbB#b.LbO#E#v..",
"aa#va6#V#ta1aI#5aX#va6#v....a6#va6....a2a6#va#..a.#va6#va...bf#va6a2....a6....#va6#va6#va6#vbrbqbb.abD.ob0#C#l..",
"aaa6aR#6.Va1.l.1.Da6#va6#v....a6#v....a.#va6a#..a2a6#va6a2..a#a6#va.....#v....a6#va6#va6#va6#v#Ebb#qbDakbG#E#v..",
"aa#va6aqb#.c.V#ma0aYa6#va6#v..........a2bf..........a.#vap..a##va6a2....a6....#va6#va6#va6#va6bq#5bB#b.ob0bN#l..",
"aa#v#v#V.H.0bB#U#NaY#va6#v#v#va6#v#v#va6#v#v#va6#v#v#va6#v#v#va6#v#v#va6#v#v#va6#v#v#va6#v#v#v.v.J#u#b.2bxaV#v..",
"aa#va6bmbS.mbC.8#h.v#l.va6.v#l.v#l.v#l#va6.va6#va6#va6#va6#va6#v#l.va6.va6.va6b1br#va6#v#lb1#l.F.JbS#bbAb0bN#l..",
"aa#vaY.q#B.obCak.hbububu#E#E#Ebqbq.F#1bqbq#E#1.F.F#1bq#1.F#1#1bq#1#1bq#1.F#1bq#1#1.F#1bq#1bq#1bRb0bt#b.jbwaV#v..",
"aa#vbr.6aoaB.d#Z#K#w.9bjan.OaLaQ.XaQaLaQ.XbPaLaQbE#Pbm.pbm.e.W#P.e#Pby#Pby.pbm.pbr.p.W#Jby#PbE#Kbsba#b#zbsbq#l..",
"aa#v.vaG.jaB#ubt#tbI.Va4.K#q.K#4#H.U#H#H.U#H.U#4#U.3.3#r#r#j#A.3#U.3#U.3#A#j#j#I#j#j#j#j#A.r#o#7bB#q#u#zb#.YaY..",
"aa#v.vbKah.U#H.V.V.V.Kb##H.U.U#7#7bB#7#7#7#7#7.H.rak.8#I#I.8#I#I.8.8.8.8.8.w.w.w.w.w.w#I.8.8.r.H.U#pai.jb#bqb1..",
"aa#v.vapbo#S#X.c.c.c.c.cbW#s.E#s#sbUbU.X.X.X.X.X#KbVbV#i#W#i#i#i#i#i#i#i#Waqaqaqaqaqaqaq#W#ibV.X#s.c.5.abFbq#v..",
"aa#v#lbq#.#8.3.3#8bZ.3bZ#8#8#A#8#G#j#A#8#G#G#A#G#I#I#j#8#G#I#8#G.8.L#j#8#j#G#G#j#jbo#j#G#jbo#I#G#8bZ#UbG#Y#E#v..",
"aa#v#v.vbq.y.ya..J.y.y.ya.a..y.J.y.y.y.y.y.y.yaO.y.ybN#C.y.y.yaObN.y#C.yaO.y#CbNaV.y#C.y.y#Ca..y.y.ya.#T#Eb1#v..",
"aa#v#v#v.Zb1aYb1#v#vaY#v.Zb1b1.v.v#v.Zb1.v.v#v#vb1.v.v.Zb1.v#v.vb1.v.vaY#v.v#v.Zb1#v#vb1.v#vaY.Zb1#vaYaR#v#v#v..",
".Q.............................................................................................................."
};

