/* XPM */
static char * klo_navigator_xpm[] = {
/* width height num_colors chars_per_pixel */
"54 55 12 1",
/* colors */
" 	s None	c None",
".	c #008080",
"X	c #0000f8",
"o	c #c0c0c0",
"O	c black",
"+	c #800000",
"@	c #808000",
"#	c #f8fc00",
"$	c #808080",
"%	c white",
"&	c #b0b0b0",
"*	c #6064c8",
/* pixels */
"                                                      ",
"                                                      ",
"  .X.X.X.X.X.X.X.X.X.X.X.X.X.X.X.X.X.X.X.X.X.X.X.XoO  ",
"  X.X.X.X.X.X.X.X.X.X.X.X.X.X.X.X.X.X.X.X.X.X.X.XoO   ",
"  .X.X.X.X.X.X.X.X.X.X.X.X.X.X.X.X.X.X.X.X.X.X.XoO    ",
"  X.X.X.X.X.X.X.X.X.X.X.X.X.O.O.X.X.X.X.X.X.X.XoO     ",
"  .X.X.X.X.X.X.X.X.X.X.XOOOO.O.O.X.X.X.X.X.X.XoO      ",
"  X.X.X.X.X.X.X.X.X.X.X.+@@+O.O.O.X.X.X.X.X.XoO       ",
"  .X.X.X.X.X.X.X.X.X.X.O@o@@+O.O.X.X.X.X.X.XoO        ",
"  X.X.X.X.X.X.O.O.X.X.XOooo+OOO.O.X.X.X.X.XoO         ",
"  .X.X.X.XOOOO.O.O.X.X.O#o@@+O.O.X.X.X.XOO+O          ",
"  X.X.X.X.$+@+O.O.O.X.XOo%o+OOO.O.X.X.OO@@#+O         ",
"  .X.X.X.Xo#+@+O.O.O.X.O#%@@+O.O.X.X.XO@o#+@O$$$      ",
"  X.X.X.X.O%#+@+O.O.O.OO@%o+OOO.O.X.XO@o#+@+Oo$$$     ",
"  .X.X.X.XO$o#+$+OOO++$@@o@o@+@+OO.OO@o#+@+OOo$$$     ",
"  X.X.X.X.XO$o#$@+O+$$$oo%o#o#$@++OO@o#+$+OOo$$$$     ",
"  .X.X.X.X.XO$o#@$+$o%oooo@o#o#o@$+@o#+@+OOo$$$$      ",
"  X.X.X.X.X.XO@$o@$o%@@@o#o+O@@#o#o@#+@+OOo$$$$       ",
"  .X.X.X.X.X.O$o#o@@+$+O#o@@OO+@@%#@@@+OOo$$$$        ",
"  X.X.X.X.X.O+$oo%o@$O++o#o+OO..%o#o$@@Oo$$$$         ",
"  .X.X.X.X.O+@$ooo%o@$OO#o@@OO.%o#+oo#@+O$$$          ",
"  X.X.X.X.X+@o%o@+o%o+$Oo#o+OO%o@+$+#o$@O$$           ",
"  .X.X.X.X+@@%o$++Oo#$+$#o@@@oo@+$OO+o#@+O            ",
"  X.X.X.X.O$o#o+OOO.o#$+o$$+oo@+$OOOO+#$$O            ",
"  .X.X.X.O+ooo@@OO.O$#oo#%#@@@+$OO&&O+o#+$O           ",
"  X.X.X.O+@o#o$+OOO.O$o%o#@o@+@OO&&&O+@#$++           ",
"  .X.X.XOO+o%o@OOOOO@o%o#o#$o@+@+O+O++ooo$+@          ",
"  X.$$oo$o$#o#o#o#@#@#%%o#@#$o@+#@##o#@#o+@$$$$$$#    ",
"  .$#%###$#%%o$%%%#o+o%o#o#$o@O@+o#o#o@o@o#o#o#o$+    ",
"  X$o@o@o+#o#@o@o+$+$@o%o#@o$+@+@+@+@+@$@@$@$@$@@+O   ",
"  .O+@+@+@+#o@+@+@+@+$@o#o#o$@+O+$+$+O+@o$+@+@+$+$O   ",
"  X.O+O+O+@o%+OOOOOOo@oOo$$$O++@OO&&O+@$@+@+O+O+$O$$  ",
"  .XOOOOOO@o%@+O...%@o+@O@+O@@#+$O&&OO@o+$OOOOOOO$$$  ",
"  X.X.O.OO+ooo@+O.%@o+$+@+$@+oo#+$O&OO$o+OOo$o$$$$$   ",
"  .X.O.O.O@@o%#$O%@o+@OOoo@+OOoo#+$OO$o@@+O$$$$$$$    ",
"  X.X.X.X.O@o%#o$o#+@O&O%#+@O&O%oo+$+#o@+O@           ",
"  .X.X.X.X.+@o%oo#+@O&&O%o@+O&&*%o#+oo#+$O            ",
"  X.X.X.X.X++$o%#@@+OO&Oo#+@O&++*%o#+o+@O$            ",
"  .X.X.X.X.XO@$o%oo@$OO+%o@++++@@o%#@@@+O@$           ",
"  X.X.X.X.XO@o#+@%#o@o@o$#$$@$@##o@@@#+@OO@$          ",
"  .X.X.X.XO@o#+@+@o%%oo@$$@o#o#oo@+@@o#+@+O@$         ",
"  X.X.X.XO@o#+@OOO$+#o%%%#o#o#o+$+@OO$o#+$+O@$        ",
"  .X.X.XO@o#+$+OO++$+$+$ooo$+$+@OOOo$O$o#$@+Oo$       ",
"  X.X.X.O%#+@+OOo$O+O+$+@#$+@+OOO+o$$ O$o#+@+Oo$      ",
"  .X.X.Xo#+@+OOo$$  +O+@%o@@OOOoo$$    O$o#+@Oo$      ",
"  X.X.XoO+@+OOo$$      +%#@+Ooo$$       O$o$+Oo$      ",
"  .X.XoO$OOOOo$$       +%o+@Oo$          OO$Oo$$      ",
"  X.XoO $oooo$$        Oo#@+Oo$            $$$$       ",
"  .XoO   $$$$$         Ooo+@Oo$                       ",
"  XoO                  +@#@+Oo$                       ",
"  oO                   O@$+OOo$                       ",
"  O                    oO@OOo$$                       ",
"                         OO$$                         ",
"                                                      ",
"                                                      "};

