/* XPM */
static char * klo_mail_xpm[] = {
/* width height num_colors chars_per_pixel */
"54 54 16 1",
/* colors */
" 	s None	c None",
".	c #008080",
"X	c #0000f8",
"o	c #c0c0c0",
"O	c black",
"+	c #f80000",
"@	c #800000",
"#	c #00fcf8",
"$	c #f86430",
"%	c #9898f8",
"&	c #808080",
"*	c white",
"=	c #f8fc00",
"-	c #6064c8",
";	c #808000",
":	c #008000",
/* pixels */
"                                                      ",
"                                                      ",
"  .X.X.X.X.X.X.X.X.X.X.X.X.X.X.X.X.X.X.X.X.X.X.X.XoO  ",
"  X.X.X.X.X.X.X.X.X.X.X.X.X.X.X.X.X.X.X.X.X.X.X.XoO   ",
"  .X.X.X.X.X.X.X.X.X.X.X.X.X.X.X.X.X.X.X.X.X.X.XoO    ",
"  X.X.X.X.X.X.X.X.X.X.X.X.X.X.X.X.X.X.X.X.X.X.XoO     ",
"  .X.X.X.X.X.X.X.X.X.X.X.X.X.X.X.X.X.X.X.X.X.XoO      ",
"  X.X.X.X.X.X.X.X.X.X.X.X.X.X.X.X.X.X.X.X.X.XoO       ",
"  .X.X.X.X.X.X.X.X.X...++@.X.X.X.X.X.X.X.X.XoO        ",
"  X.X.X.X.X.X.X.X.X#Xo+$%o&X..X.X.X.X.X.X.XoO         ",
"  .X.X.X.X.X.X.X.%%XXXoo*XXooo.X.X.X.X.X.XoO          ",
"  X.X.X.X.X.X.X%%+%oo*o*o*%*%XXX&.X.X.X.XoO           ",
"  .X.X.X.X.X.%+++o*o*o*o*o*%*X*&&&.&.X.XoO            ",
"  X.X.X.X.X%%XXXo*o*o*o*o*%*%*%*++++&.XoO             ",
"  .X.X.X.XX+o%*****o*o*o*%*%=%*%**oo&.&O              ",
"  X.X.X.X.ooo*****o*o*o=%*X&**oo=o*oXXXX              ",
"  .X.X.X.XO++o*****o*o*o*o*o.X=*o*o*o*oo+++           ",
"  X.X.X.X.OO&oo***o*o=o*&&o**=&&o=*o%*o++%*oo         ",
"  .X.X.X.X&OOXX%*****o*o*o.&****&Xo**ooo=%*oXXX       ",
"  X.X.X.X.X&OO&+%***o*o*o**=X.*=*=O-o=*oo*%X%oo++     ",
"  .X.X.X.X.X&OO&X&*o*o$++;o**=.X**=*--o=*oo*=++=+O&   ",
"  X.X.X.X.X.X&OO&Xoooo***o*XXoo*O=*o*=**o=*o*ooooXX   ",
"  .X.X.X.X.X.X&OOo*XX***o*o*oXXo*o*=***=**o=*o%XXX&   ",
"  X.X.X.X.X.X.$+++o**o*o*o*o*o*$$+o**=**o=*oo*ooO&&   ",
"  .X.X.X.X.+XXoo********o*o*o*o*oo--XX*=**=o+++O&&    ",
"  X.X.X.X.*o*******o*o*o*o*o*o*o*oo%o;$$+o%*oo-&&     ",
"  .X.X.X.X+*******************o*o*o*%o%o;XX&&O&&      ",
"  X.X.X.X.O++o*o*o*o*o*o*o*o*o*o*o*o*%*ooooXXX-       ",
"  .X.X.X.XOOO&**************&*****o*o*o*o*oo;;;-+     ",
"  X.X.X.X.XOOX+o*o*o*o*o*o***--o*o*o*o*o*o*o*o++++--  ",
"  .X.X.X.X.XOOXXX********-o***o--*o***o*%*o*%*%*%---  ",
"  X.X.X.X.X.XOO&%o*o*o*ooo-&*o**oO-o*o*o*o*o*o*%*ooO  ",
"  .X.X.X.X.X.XOO++%***=****oO-=o*=oO-*o*o*%*%*%*%*XO  ",
"  X.X.X.X.X.X.XOO&%o*o****=**o-&=o***--o*o*o*%*XXXX&  ",
"  .X.X.X.X.X.X.XOO&XXX*==***o**o--=o===oo*o*%**o-O&&  ",
"  X.X.X.X.X.X.X.XOO&%o*o**=***=o*oO-*o*=*=oo*o--O&&   ",
"  .X.X.X.X.X.X.XoO&O&&+++***=***=**oo*o*o==++++O&&&   ",
"  X.X.X.X.X.X.XoO  XO&O%oo****=**o=o*o*=*o*o&&O&&&    ",
"  .X.X.X.X.X.XoO    X&&O&%oo****=***=*=*=o&&OO&&&     ",
"  X.X.X.X.X.XoO      &&&O&XXXo*=***o*=*XXXXO&&&&      ",
"  .X.X.X.X.XoO        &&&O&.o***=*==**=oo&O&&&&       ",
"  X.X.X.X.XoO          &&&O.%oo******ooo:O&&&&        ",
"  .X.X.X.XoO            &&&oO+++**==++++Oo&&&         ",
"  X.X.X.XoO              &&&oO%%o**oooOOo&&&          ",
"  .X.X.XoO                &&&oO&%ooXXOoo&&&           ",
"  X.X.XoO                  &&&oOXX&&Ooo&&&            ",
"  .X.XoO                    &&&oO&OOoo&&&             ",
"  X.XoO                      &&&oO&oo&&&              ",
"  .XoO                        &&&&oo&&&               ",
"  XoO                          &&&&&&&                ",
"  oO                            &&&&&                 ",
"  O                              &&&                  ",
"                                                      ",
"                                                      "};

