/* XPM */
static char * klo_composter_xpm[] = {
/* width height num_colors chars_per_pixel */
"54 54 16 1",
/* colors */
" 	s None	c None",
".	c #008080",
"X	c #0000f8",
"o	c #c0c0c0",
"O	c black",
"+	c #808080",
"@	c #303060",
"#	c #f8fc00",
"$	c white",
"%	c #808000",
"&	c #202020",
"*	c #000080",
"=	c #800000",
"-	c #f864c8",
";	c #00fcf8",
":	c #b0b0b0",
/* pixels */
"                                                      ",
"                                                      ",
"  .X.X.X.X.X.X.X.X.X.X.X.X.X.X.X.X.X.X.X.X.X.X.X.XoO  ",
"  X.X.X.X.X.X.X.X.X.X.X.X.X.X.X.X.X.X.X.X.X.X.X.XoO   ",
"  .X.X.X.X.X.X.X.X.X.X.X.X.X.X.X.X.X.X.X.X.X.X.XoO    ",
"  X.X.X.X.X.X.X.X.X.X.X.X.X.X.X.X.X.X.X.X.X.X.XoO     ",
"  .X.X.X.X.X.X.X.X.X.X.X.X.X.X.X.X.X.X.X.X.X.XoO      ",
"  X.X.X.X.X.X.X.X.X.X.X.X.X.X.X.X.X.X.X.X.X.XoO       ",
"  .X.X.X.X.X.X.X.X.X.X.X.X.X.X.X+O.@.X.X.X.XoO        ",
"  X.X.X.X.X.X.X.X.X.X.X.X.X.X.Xo#+O.@.X.X.XoO         ",
"  .X.X.X.X.X.X.X.X.X.X.X.X.X.oo#o$+O.@.X.XoO          ",
"  X.X.X.X.X.X.X.X.X.X.X.X.X.o#$o$o++O.@.XoO           ",
"  .X.X.X.X.X.X.X.X.X.X.X.Xoo$$o#o$o++O.@oO            ",
"  X.X.X.X.X.X.X.X.X.X.X.+o$$$#$$$o$o++OoO             ",
"  .X.X.X.X.X.Xo@%X.X.X.+o$$#$$o#o$o$o++O++            ",
"  X.X.X.X.X.X.+#%&%&*+o$$#$$$#$$$o#o$o++O++           ",
"  .X.X.X.X.X.X%o#%%%=&$#$$$#$$o#o$o$ooo++O++          ",
"  X.X.X.X.X.X.X+$%%%=&$$$#$$$#$$$o$o$ooo++O++         ",
"  .X.X.X.X.X.X.%#-&%%&%o$$$#$$o#o$o$o#ooo++O++        ",
"  X.X.X.X.X.X.X%#$=%%=&$o#$$$#$$$o#o$o$ooo++O++       ",
"  .X.X.X.X.X.Xo%o#$$%%=*o$$o$$o#o$o$o$ooooo++O++      ",
"  X.X.X.X.X.Xo$+oo##$%+&**o$$o$o$o#o$o$ooooo++O++     ",
"  .X.X.X.X.Xo$$%%++$#$%&*&o$o$o$o$o$o$o$ooooo++O++    ",
"  X.X.X.X.o$$$$$$$%+##.&OO&o$o$o#o$o$o$ooooooo++O++   ",
"  .X.X.X.$$$$$$$$$o++.&OOOO&o$o$o$o$o$o$ooooo$+OO++   ",
"  X.X.Xo$$#$$$$#$$$oO*..OOOO&o$o$o$o$o$ooooo$+OO++o   ",
"  .X.Xo$$$$$$#$$$$#$O.+..OOOO&o$o#o$o$ooooo$+OO++o    ",
"  X.X.O&o$$$$$$$#$$#$$.+;.OOOO&o$o$o$o$ooo$+OO++o     ",
"  .X.X.O&o#$$$$#$$#$#$#.+$.OOOO&o$o$ooooo$+OO++o      ",
"  X.X.X.O&o#$#$$$$$#$#$#.+$.OOOO&o$o$ooo$+OO++o       ",
"  .X.X.X.O&o#$#$#$$$#$#$$.+$.OOOO&o$ooo$+OO++o        ",
"  X.X.X.X.O&o#$#$#$#$#$#$$.+$.OOOO&o$o$+OO++o         ",
"  .X.X.X.X.O&o#$#$#$#$#$#$#.+$.OOOO&$$+OO++o          ",
"  X.X.X.X.X.O&o#$#$#$#$#$#$#.+$.OOOO&oOO++o           ",
"  .X.X.X.X.X.O&o#$#$#$#$#$#$#.+$.OOOO&O++             ",
"  X.X.X.X.X.X.O&o#$#$#$#$#$#$o.+$.OOOO&+              ",
"  .X.X.X.X.X.X.O&o#$#$#$#$#$#$$.+$.OOOO&  O           ",
"  X.X.X.X.X.X.XoO&o#$#$#$#$#$o$o.+$.OOOXO OO          ",
"  .X.X.X.X.X.XoO +&o#$#$#$#$o$o$O.+$.OX&OO:OO         ",
"  X.X.X.X.X.XoO   +&o#$#$#$o$o$OO+.+o*&OOOO:OO        ",
"  .X.X.X.X.XoO     +&o#$#$o$o$OO+++.;+OOOOOO:OO       ",
"  X.X.X.X.XoO       +&o#$o$o$OO+++ X+..OOOOOO:OO      ",
"  .X.X.X.XoO         +&oo$o$OO++++ o.$..OOOOOOoOO     ",
"  X.X.X.XoO           +&oo$OO++++   +.$..OOOOOOoOO    ",
"  .X.X.XoO             +&$OO++++     +.$..OOOOOOoO    ",
"  X.X.XoO               +&O++++       +.;..OOOOOOO    ",
"  .X.XoO                 +++++         +.;..OOOO+O    ",
"  X.XoO                   +++           +.$..OOO+O    ",
"  .XoO                     +             +.$.oOOOO    ",
"  XoO                                     +.+;OOO+    ",
"  oO                                       +OOOO+     ",
"  O                                                   ",
"                                                      ",
"                                                      "};

