/* XPM */
static char * klo_center_xpm[] = {
/* width height num_colors chars_per_pixel */
"54 54 15 1",
/* colors */
" 	s None	c None",
".	c #0000f8",
"X	c #008080",
"o	c #c0c0c0",
"O	c black",
"+	c #6064c8",
"@	c #303060",
"#	c white",
"$	c #f80000",
"%	c #808080",
"&	c #f8fc00",
"*	c #008000",
"=	c #9898f8",
"-	c #4098a0",
";	c #202020",
/* pixels */
"                                                      ",
"                                                      ",
"  .X.X.X.X.X.X.X.X.X.X.X.X.X.X.X.X.X.X.X.X.X.X.X.oO   ",
"  X.X.X.X.X.X.X.X.X.X.X.X.X.X.X.X.X.X.X.X.X.X.X.oO    ",
"  .X.X.X.X.X.X.X.X.X.X.X.X.X.X.X.X.X.X.X.X.X.X.oO     ",
"  X.X.X.X.X.X.X.X.X.X.X.X.X.X.X.X.X.X.X.X.X.X.oO      ",
"  .X.X.X.X.X.X.X.X.X.X.X.X.X.X.X.X.X.X.X.X.X.oO       ",
"  X.X.X.X.X.X.X.X.X.X.X.X.X.X.X.X.X.X.X.X.X.oO        ",
"  .X.X.X.X.X.X.X.X.X.X.X.X.X.X.X.X.X.X.X.X.oO         ",
"  X.X.X.X.X.X.X.X.X.X.X.X++++++++++++++++++++++++@    ",
"  .X.X.X.X.X.X.X.X.X.X.X.#o.#oo$#oo.#oo$#oo.#oo$+@    ",
"  X.X.X.X.X.X.X.X.X.X.X.X#.###$###.###$###.###$o+@%   ",
"  .X.X.X.X.X.X.X.X.X.X.X..#####################o+@%   ",
"  X.X.X.X.X.X.X.X.X.X.X.++&#&***&#&#&#&#&#&#&#&o+@%   ",
"  .X.X.X.X.X.X.X.X.X.X..==+##***###############.+@%   ",
"  X.X.X.X.X.X.X.X.X.X.X==#++&***&#&#&#&#&#&#&#.o+@%   ",
"  .X.X.X.X.X.X.X.X.X.X==###++##################o+@%   ",
"  X.X.X.X.X.X.X.X.X.X==#####++&#&#&#&#&#&#&#&#&o+@%   ",
"  .X.X.X.X.X.X.X.X.X==#######++####%%##%%######$+@%   ",
"  X.X.X.X.X.X.X.X.X==#########++&#&%%#&%%#&#&#$o+@%   ",
"  .X.X.X.X.X.X.X.X==#####o%####++##%%##%%######o+@%   ",
"  X.X.X.X.X.X.X.X==###&#o%##&###++&%%#&%%#&#&#&o+@%   ",
"  .X.X.X.X.X.X.X==#####o%########++%%##%%######.+@%   ",
"  X.X.X.X.X.X.X==###&#o%&#&o%#&###++&#&%%#&#&#.o+@%   ",
"  .X.X.X.X.X.X==#&###o%###o%#######++##%%##&#&#o+@%   ",
"  X.X.X.X.X.+==#&#&#o%&#&o%#&#o%&#&#++&%%#&####o+@%   ",
"  .X.X.X.X.X==#o#&#o%##&o%#&oo%##o###++o#&#&#&#$+@%   ",
"  X.X.X.X.X.X======================o&#++o#&#o#$o+@%   ",
"  .X.X.X.X.XX.@@@@@@@@@@@@@@@@@@@@@Oo##++o#o#&#o+@%   ",
"  X.X.X.X.X+.@+==================++@Oo&#++o#&#&o+@%   ",
"  .X.X.X.X.+@+=ooooooooooooooooooo++@Oo##++o#o#.+@%   ",
"  X.X.X.X.X+@=oo&#&##&###########o=+@O%&&&++o#.o+@%   ",
"  .X.X.X.X.+@=o&#&#&##&###########o+@O%o&o&++o#&+@%   ",
"  X.X.X.X.X+@=o###-XX#XXX#XXX#####o+@O%&o&++o#oo+@%   ",
"  .X.X.X.X.+@=o###-XX#XX;#X;@#####o+@O%o&++o#&#$+@%   ",
"  X.X.X.X.X+@=o&###&##############o+@O%&++o#o#$o+@%   ",
"  .X.X.X.X.+@=o&#&####&###########o+@O%++o#o#&#&+@%   ",
"  X.X.X.X.X+@=o#&#XX;;ooX;ooX;;o##o+@O%+o#o#&#&o+@%   ",
"  .X.X.X.X.+@=o###XX@;ooX@ooX@;o##o+@O%o#o#&#&#.+@%   ",
"  X.X.X.X.X+@=o#&#####&###########o+@O%#o#o#o#.o+@%   ",
"  .X.X.X.X.+@=o###&###############o+@O%o#&#&#&#&+@%   ",
"  X.X.X.X.o+@=o&&#X;;;o;;;o#X;;@o#o+@O%o$#o.o#&$+@%   ",
"  .X.X.X.oO+@=o&#&X@;@o@;@o#X@;;o#o+@O%$#o.&#&$o+@%   ",
"  X.X.X.oO +@=o&&#&#&#&#&#&#&#####o+@O%OOOOOOOOOOO%   ",
"  .X.X.oO   @=oo#&#&#&#&#&#&#&###o=+@O%%%%%%%%%%%%%   ",
"  X.X.oO    @X=ooooooooooooooo&#o=+@@%%               ",
"  .X.oO      @@================&=+@@%%                ",
"  X.oO         @@@@@@@@@@@@@@@.o+@@%%                 ",
"  .oO                         @++@%%                  ",
"  oO                           @+@%                   ",
"  O                             @@%                   ",
"                                  %                   ",
"                                                      ",
"                                                      "};

